<svg width="33" height="37" viewBox="0 0 33 37" fill="none" xmlns="http://www.w3.org/2000/svg">
<path d="M0.899994 34.7V12.8C0.899994 12.4 1.1 11.9 1.5 11.7L16.2 0.8C16.7 0.4 17.4 0.4 17.9 0.8L32.4 11.7C32.8 12 33 12.4 33 12.8V34.7C33 35.5 32.4 36.1 31.6 36.1H22.7C21.9 36.1 21.3 35.5 21.3 34.7V23.3C21.3 22.5 20.7 21.9 19.9 21.9H14C13.2 21.9 12.6 22.5 12.6 23.3V34.7C12.6 35.5 12 36.1 11.2 36.1H2.39999C1.49999 36.1 0.899994 35.5 0.899994 34.7ZM5.29999 33.1H8.10001C8.90001 33.1 9.5 32.5 9.5 31.7V20.3C9.5 19.5 10.1 18.9 10.9 18.9H22.7C23.5 18.9 24.1 19.5 24.1 20.3V31.7C24.1 32.5 24.7 33.1 25.5 33.1H28.4C29.2 33.1 29.8 32.5 29.8 31.7V14.3C29.8 13.9 29.6 13.4 29.2 13.2L17.7 4.50001C17.2 4.10001 16.5 4.10001 16 4.50001L4.29999 13.2C3.89999 13.5 3.70001 13.9 3.70001 14.3V31.7C3.90001 32.5 4.49999 33.1 5.29999 33.1Z" fill="white"/>
</svg>
